<?xml version="1.0" encoding="UTF-8"?> <svg id="Isolation_Mode" data-name="Isolation Mode" xmlns="http://www.w3.org/2000/svg" viewBox="0 0 23.8 23.8"> <defs> <style> .cls-1 { fill: #2a6bb5; } </style> </defs> <path class="cls-1" d="M8.5,0c-.5,0-.8.4-.8.8v5.9h15.6L16.2,0s-7.7,0-7.7,0Z"/> <path class="cls-1" d="M23.8,8.5c0-.5-.4-.8-.8-.8h-5.9v15.6l6.7-7.1s0-7.7,0-7.7Z"/> <path class="cls-1" d="M15.3,23.8c.5,0,.8-.4.8-.8v-5.9H.5l7.1,6.7s7.7,0,7.7,0Z"/> <path class="cls-1" d="M0,15.3c0,.5.4.8.8.8h5.9V.6L0,7.7v7.6Z"/> </svg>