<?xml version="1.0" encoding="UTF-8"?>
<svg id="Layer_1" data-name="Layer 1" xmlns="http://www.w3.org/2000/svg" viewBox="0 0 47 47.47">
    <defs>
        <style>
            .cls-1 {
            fill: #fff;
            fill-rule: evenodd;
            }
        </style>
    </defs>
    <path class="cls-1" d="M18.64,0L4.09,3.81.08,18.44l5.01,5.15L0,28.65l3.77,14.69,14.48,4.05,5.1-5.06,5.01,5.15,14.55-3.81,4.01-14.63-5.01-5.15,5.1-5.06-3.77-14.69L28.75.08l-5.09,5.06L18.64,0ZM9.71,6.62l7.66-2.01,3.35,3.44-4.89,4.86-6.13-6.29ZM26.53,8.1l3.41-3.38,7.63,2.13-6.23,6.19-4.81-4.94ZM4.67,17.24l2.11-7.7,6.12,6.29-4.89,4.86-3.35-3.44ZM34.22,16l6.23-6.19,1.99,7.74-3.4,3.38-4.81-4.94ZM18.72,15.87l4.89-4.86,4.81,4.94-4.89,4.86-4.81-4.94ZM10.9,23.63l4.89-4.86,4.81,4.94-4.89,4.86-4.81-4.94ZM26.41,23.76l4.89-4.86,4.81,4.94-4.89,4.86-4.81-4.94ZM4.57,29.93l3.41-3.39,4.81,4.94-6.22,6.19-1.99-7.74ZM18.59,31.52l4.89-4.86,4.81,4.94-4.89,4.86-4.81-4.94ZM34.09,31.65l4.89-4.86,3.35,3.44-2.11,7.71-6.13-6.29ZM9.44,40.62l6.23-6.19,4.81,4.94-3.41,3.38-7.63-2.13ZM26.28,39.42l4.89-4.86,6.13,6.29-7.66,2.01-3.35-3.44Z"/>
</svg>